<svg width="960" height="720" viewBox="0 0 960 720" fill="none" xmlns="http://www.w3.org/2000/svg">
  <rect width="960" height="720" rx="36" fill="#FFF8EF"/>
  <rect x="36" y="36" width="888" height="648" rx="28" fill="#FFFFFF" stroke="#E9DACA"/>
  <rect x="68" y="68" width="190" height="584" rx="24" fill="#1A1712"/>
  <rect x="100" y="116" width="126" height="18" rx="9" fill="#FFF8EF"/>
  <rect x="100" y="166" width="100" height="14" rx="7" fill="#5C5348"/>
  <rect x="100" y="206" width="118" height="14" rx="7" fill="#5C5348"/>
  <rect x="100" y="246" width="92" height="14" rx="7" fill="#5C5348"/>
  <rect x="290" y="68" width="602" height="108" rx="24" fill="#F6ECDE"/>
  <rect x="322" y="102" width="164" height="20" rx="10" fill="#1A1712"/>
  <rect x="322" y="134" width="238" height="14" rx="7" fill="#7B6C5B"/>
  <rect x="678" y="98" width="176" height="48" rx="24" fill="#EF5B2A"/>
  <rect x="290" y="206" width="386" height="214" rx="24" fill="#FFF3EC" stroke="#F0CFBE"/>
  <path d="M338 356C377 312 411 278 453 284C495 290 501 341 544 345C587 349 612 286 644 250" stroke="#EF5B2A" stroke-width="12" stroke-linecap="round"/>
  <circle cx="338" cy="356" r="12" fill="#EF5B2A"/>
  <circle cx="453" cy="284" r="12" fill="#EF5B2A"/>
  <circle cx="544" cy="345" r="12" fill="#EF5B2A"/>
  <circle cx="644" cy="250" r="12" fill="#EF5B2A"/>
  <rect x="708" y="206" width="184" height="214" rx="24" fill="#E5F4F5"/>
  <circle cx="800" cy="274" r="44" fill="#0E7C86"/>
  <rect x="748" y="350" width="104" height="16" rx="8" fill="#1A1712"/>
  <rect x="734" y="382" width="132" height="12" rx="6" fill="#5C5348"/>
  <rect x="290" y="450" width="602" height="202" rx="24" fill="#FCF7F0" stroke="#E9DACA"/>
  <rect x="322" y="484" width="262" height="22" rx="11" fill="#1A1712"/>
  <rect x="322" y="530" width="252" height="16" rx="8" fill="#8F7E6E"/>
  <rect x="322" y="566" width="220" height="16" rx="8" fill="#8F7E6E"/>
  <rect x="640" y="498" width="212" height="24" rx="12" fill="#FFD9CA"/>
  <rect x="640" y="542" width="172" height="24" rx="12" fill="#FFD9CA"/>
</svg>
